<?xml version="1.0" standalone="no"?>
<!DOCTYPE svg PUBLIC "-//W3C//DTD SVG 20010904//EN"
 "http://www.w3.org/TR/2001/REC-SVG-20010904/DTD/svg10.dtd">
<svg version="1.0" xmlns="http://www.w3.org/2000/svg"
 width="784.000000pt" height="787.000000pt" viewBox="0 0 784.000000 787.000000"
 preserveAspectRatio="xMidYMid meet">

<g transform="translate(0.000000,787.000000) scale(0.100000,-0.100000)"
fill="#000000" stroke="none">
<path d="M0 3935 l0 -3935 3920 0 3920 0 0 3935 0 3935 -3920 0 -3920 0 0
-3935z m1529 3502 c5 -12 12 -482 16 -1045 l8 -1022 676 2 676 3 3 1043 2
1042 444 0 445 0 6 -52 c9 -74 2 -4905 -7 -4914 -12 -11 -10 -12 -701 621
l-186 170 0 583 -1 582 -680 0 -680 0 0 -569 0 -568 -62 -54 c-84 -72 -399
-361 -631 -578 -103 -97 -192 -177 -196 -179 -18 -6 -21 158 -21 1034 l0 914
-145 0 -145 0 0 460 0 460 145 0 145 0 0 999 c0 549 3 1019 6 1045 l7 46 434
0 433 0 9 -23z m5931 -134 l0 -157 -311 -312 -311 -312 -860 -7 -860 -7 4
-557 c2 -306 7 -562 11 -568 6 -10 251 -13 1168 -13 l1159 0 0 -24 c0 -30
-289 -334 -634 -668 l-234 -228 -736 0 -736 0 0 -578 0 -579 -297 -269 c-164
-148 -364 -331 -445 -406 -81 -76 -149 -138 -152 -138 -3 0 -6 1121 -6 2490
l0 2490 1620 0 1620 0 0 -157z m-183 -4222 c62 -29 129 -95 150 -149 49 -128
-8 -277 -130 -338 -140 -71 -289 -20 -356 121 -19 41 -22 61 -19 124 4 89 23
134 79 188 71 70 189 93 276 54z m-5429 -941 l32 0 0 -410 0 -410 -115 0 -115
0 0 155 0 156 -137 -3 -138 -3 -3 -152 -3 -153 -108 0 -108 0 -4 253 c-2 138
-2 322 1 407 l5 155 107 3 107 3 3 -158 3 -158 138 -3 137 -3 0 167 0 167 83
-6 c45 -4 97 -7 115 -7z m2519 -292 c-4 -337 -7 -355 -69 -418 -85 -88 -183
-125 -312 -118 -139 7 -249 75 -307 187 -21 41 -22 57 -27 342 l-5 299 94 0
c52 0 99 -4 105 -8 7 -4 13 -92 18 -252 8 -286 11 -300 89 -339 48 -24 50 -24
101 -8 88 28 96 55 105 382 l6 220 80 6 c44 3 90 6 103 7 l24 2 -5 -302z m916
287 c92 -24 217 -94 217 -121 0 -7 -28 -39 -61 -72 l-61 -60 -62 25 c-132 54
-282 32 -239 -35 13 -21 45 -29 167 -42 148 -17 170 -24 211 -72 35 -42 65
-118 65 -168 0 -61 -32 -135 -79 -181 -135 -135 -430 -129 -601 10 l-34 29 67
70 68 70 52 -29 c116 -62 297 -55 297 12 0 31 -39 46 -160 64 -176 24 -218 43
-261 112 -19 30 -22 50 -22 122 0 100 8 125 59 181 41 45 92 75 151 89 60 14
164 12 226 -4z m-2309 -24 c69 -34 170 -132 200 -194 53 -108 53 -251 1 -365
-32 -70 -117 -158 -187 -193 -114 -58 -263 -60 -381 -6 -70 32 -161 122 -192
189 -31 69 -49 176 -41 247 15 128 110 256 236 320 65 32 66 32 190 29 108 -3
132 -6 174 -27z m3706 -70 l0 -99 -210 -7 -211 -7 3 -52 3 -51 180 -3 180 -2
-3 -95 -3 -95 -177 -2 -177 -3 -3 -52 -3 -53 210 0 211 0 0 -100 0 -100 -320
0 -320 0 0 410 0 410 320 0 320 0 0 -99z m-5962 -288 l3 -143 -176 0 -175 0 0
108 c0 59 3 124 6 145 l7 37 166 -2 166 -3 3 -142z m6680 135 c8 -8 12 -55 12
-145 l0 -133 -172 2 -173 3 -3 143 -3 142 164 0 c113 0 167 -4 175 -12z m-354
-838 c78 -12 198 -64 235 -104 l23 -25 -20 -28 c-11 -15 -38 -45 -60 -67 l-40
-38 -69 28 c-119 49 -243 35 -243 -27 0 -29 31 -38 155 -49 181 -14 247 -54
281 -167 18 -59 18 -87 -1 -151 -18 -58 -60 -112 -116 -148 -105 -66 -293 -73
-429 -15 -41 17 -92 46 -113 64 l-38 32 63 69 64 69 54 -26 c125 -60 300 -53
300 12 0 32 -26 42 -157 62 -152 23 -184 33 -224 66 -49 42 -63 78 -63 173 0
99 18 146 80 200 78 68 177 90 318 70z m-6010 -37 c8 -49 8 -102 0 -142 l-7
-31 -208 0 -209 0 0 -60 0 -60 180 0 180 0 0 -100 0 -100 -180 0 -180 0 0
-144 0 -144 -31 -6 c-17 -3 -64 -6 -104 -6 -57 0 -74 3 -79 16 -3 9 -6 195 -6
415 l0 399 319 0 318 0 7 -37z m474 -374 l2 -407 -22 -6 c-30 -8 -127 -8 -167
0 l-31 7 0 409 0 409 108 -3 107 -3 3 -406z m784 373 c35 -16 83 -47 107 -68
l44 -40 -72 -66 -73 -66 -56 29 c-175 90 -335 10 -335 -166 0 -124 78 -205
198 -205 74 0 115 29 115 81 0 17 -8 19 -75 19 l-75 0 0 80 0 80 190 0 190 0
0 -153 0 -154 -47 -39 c-76 -63 -109 -84 -165 -103 -169 -58 -334 -18 -451
109 -80 86 -101 145 -101 290 -1 105 1 120 26 173 29 62 110 154 165 188 66
41 111 49 235 45 105 -4 125 -7 180 -34z m696 25 c9 -6 12 -49 12 -158 l0
-149 145 0 145 0 0 133 c0 181 0 181 118 185 l92 3 -2 -413 -3 -413 -60 -3
c-33 -2 -79 -1 -102 3 l-43 6 0 150 0 149 -145 0 -145 0 0 -150 0 -150 -116 0
-116 0 4 398 c2 218 7 403 12 411 6 10 30 12 100 9 50 -2 97 -7 104 -11z
m1432 -92 l0 -105 -110 0 -110 0 0 -305 0 -305 -110 0 -110 0 0 305 0 305
-120 0 -120 0 1 73 c2 114 5 121 69 128 30 3 180 6 333 7 l277 2 0 -105z m880
0 l0 -105 -210 0 -210 0 0 -60 0 -60 181 0 181 0 -4 -90 c-2 -49 -8 -93 -12
-97 -4 -5 -84 -10 -177 -11 l-169 -4 0 -50 0 -51 210 8 210 7 0 -99 0 -100
-157 -6 c-87 -4 -230 -7 -319 -7 l-161 0 -7 61 c-3 34 -6 221 -6 415 l0 354
325 0 325 0 0 -105z m820 79 c102 -47 157 -129 167 -251 8 -102 -14 -162 -88
-236 l-59 -58 17 -32 c9 -18 37 -63 63 -102 26 -38 52 -80 59 -93 l12 -23
-127 3 -126 3 -63 110 c-56 99 -66 111 -97 119 -65 16 -68 10 -68 -118 0 -109
-1 -114 -22 -120 -30 -8 -157 -7 -187 1 l-24 6 5 398 c3 218 9 403 13 409 6 9
69 11 244 8 212 -3 241 -6 281 -24z"/>
<path d="M7072 3000 c-92 -56 -116 -216 -45 -300 65 -78 185 -93 260 -34 82
65 105 172 58 272 -30 65 -64 82 -167 82 -55 0 -81 -5 -106 -20z m113 -104
c11 -25 23 -36 45 -41 40 -9 38 -21 -7 -40 -42 -18 -53 -30 -53 -62 0 -30 -20
-40 -37 -18 -14 20 -19 175 -6 188 17 18 45 5 58 -27z"/>
<path d="M2730 1919 c-136 -57 -173 -228 -71 -330 68 -68 166 -74 243 -16 56
44 83 98 82 168 -1 69 -24 113 -82 153 -46 32 -127 44 -172 25z"/>
<path d="M5810 759 l0 -81 111 4 c102 3 113 5 130 27 21 25 24 62 9 91 -15 28
-64 40 -161 40 l-89 0 0 -81z"/>
</g>
</svg>
