<?xml version="1.0" standalone="no"?>
<!DOCTYPE svg PUBLIC "-//W3C//DTD SVG 20010904//EN"
 "http://www.w3.org/TR/2001/REC-SVG-20010904/DTD/svg10.dtd">
<svg version="1.0" xmlns="http://www.w3.org/2000/svg"
 width="1563.000000pt" height="1563.000000pt" viewBox="0 0 1563.000000 1563.000000"
 preserveAspectRatio="xMidYMid meet">

<g transform="translate(0.000000,1563.000000) scale(0.100000,-0.100000)"
fill="#000000" stroke="none">
<path d="M0 7815 l0 -7815 7815 0 7815 0 0 7815 0 7815 -7815 0 -7815 0 0
-7815z m8235 1968 c-10 -15 -25 -34 -32 -41 -7 -7 -13 -20 -13 -27 0 -8 -18
-31 -41 -52 -23 -21 -47 -50 -55 -65 l-14 -27 72 -3 72 -3 26 -44 c14 -25 31
-46 38 -49 7 -2 40 26 75 62 34 36 78 72 99 80 20 9 42 21 50 29 26 26 114 82
144 93 31 11 32 11 24 -16 -11 -37 -39 -79 -61 -90 -9 -6 -24 -22 -32 -37 -8
-16 -27 -50 -41 -77 -14 -28 -60 -84 -101 -127 l-75 -77 46 -81 46 -81 39 40
c21 22 43 40 49 40 5 0 10 4 10 9 0 6 42 51 93 102 90 91 142 132 240 191 47
28 48 28 41 6 -4 -13 -24 -48 -44 -78 -79 -116 -130 -198 -130 -210 0 -6 -42
-64 -93 -128 -51 -65 -96 -122 -100 -129 -4 -6 2 -28 14 -47 l21 -36 30 18
c17 9 34 28 40 42 8 22 133 150 147 150 3 0 24 19 46 43 39 42 136 113 134 99
-2 -23 -30 -76 -74 -141 -28 -40 -55 -82 -61 -92 -6 -11 -21 -30 -32 -42 -11
-12 -37 -56 -58 -97 -20 -41 -47 -88 -61 -104 l-24 -28 20 -33 c11 -18 74
-128 141 -244 l122 -211 2284 0 2285 0 -3 -32 -3 -33 -2264 -5 c-1802 -4
-2261 -8 -2249 -17 11 -10 117 -13 424 -15 l409 -3 5 -58 5 -57 73 60 74 60
140 0 139 0 57 -46 57 -47 3 47 3 46 1201 0 1201 0 68 -56 68 -56 66 56 66 56
146 0 145 0 79 -66 79 -66 0 -93 c0 -57 -4 -96 -11 -101 -8 -4 -8 -9 0 -17 7
-7 11 -56 11 -126 l-1 -116 -78 -62 -78 -63 -145 0 -144 0 -42 35 -41 35 -3
-32 -3 -33 -124 -3 c-109 -2 -125 -1 -137 15 -13 17 -13 17 -14 1 0 -17 -31
-18 -505 -18 l-506 0 3 117 c3 116 3 117 28 123 22 5 25 12 28 58 l3 52 -100
0 -101 0 0 -49 c0 -51 9 -61 51 -61 18 0 19 -8 19 -120 l0 -120 -215 0 -216 0
3 117 3 117 33 8 c31 8 32 11 32 58 l0 50 -101 0 -100 0 3 -52 c3 -46 6 -53
28 -58 25 -6 25 -7 28 -123 l3 -117 -563 0 -564 0 -74 62 -75 61 -3 -62 -3
-61 -210 0 -210 0 3 117 3 117 33 8 33 9 -3 101 c-2 70 -7 103 -15 106 -9 2
-13 -9 -13 -37 l0 -41 -70 0 -70 0 0 -65 0 -65 -57 -1 c-32 -1 -46 -4 -30 -6
l27 -4 0 -120 0 -119 -164 0 -164 0 -363 -630 -363 -629 -346 -3 -345 -3 -56
-36 c-30 -20 -77 -46 -102 -57 l-47 -21 6 27 c4 15 11 37 15 50 5 13 9 28 9
33 0 5 -46 9 -103 9 l-102 0 -78 -76 c-42 -42 -77 -80 -77 -85 0 -5 -6 -9 -12
-9 -7 0 -42 -22 -78 -49 -36 -27 -66 -45 -68 -40 -4 9 54 124 75 149 7 9 24
37 37 63 l25 47 -158 0 -159 0 -59 -57 c-62 -61 -245 -205 -251 -198 -5 4 27
106 38 120 9 12 70 126 70 131 0 2 -44 4 -97 4 l-98 0 -30 55 c-16 30 -32 55
-35 55 -3 0 -22 -11 -42 -25 l-38 -25 7 32 c3 18 14 43 25 54 19 22 19 22
-274 530 l-294 509 -115 0 c-63 0 -804 -4 -1646 -8 l-1533 -9 0 31 0 31 203 0
c377 0 3042 22 3045 25 2 2 -34 68 -80 148 l-83 146 -3 -130 -3 -129 -314 0
-315 0 0 45 c0 25 -3 45 -6 45 -4 0 -31 -20 -60 -45 l-52 -45 -147 0 -146 0
-71 60 c-40 33 -76 60 -80 60 -5 0 -41 -27 -80 -60 l-72 -60 -151 0 -151 0
-78 65 c-50 42 -83 62 -90 57 -6 -5 -42 -34 -80 -65 l-70 -57 -139 0 -138 0
-62 50 -62 50 -3 -50 -3 -50 -365 0 -364 0 0 119 0 119 30 6 30 6 0 104 0 104
-30 7 -30 7 0 119 0 119 364 0 365 0 3 -50 3 -50 60 50 60 49 141 1 142 0 48
-40 49 -40 3 40 3 40 365 0 364 0 0 -36 0 -35 44 35 43 36 144 0 144 0 55 -45
c30 -25 58 -45 62 -45 5 0 8 20 8 45 l0 45 315 0 314 0 3 -92 3 -91 447 774
447 774 227 3 227 2 39 35 c34 32 44 35 96 35 78 -1 138 -16 176 -45 l33 -25
396 0 c320 0 398 3 409 14 8 7 50 36 93 63 44 28 109 70 145 94 66 44 132 79
139 73 2 -2 -4 -16 -14 -31z"/>
<path d="M8025 9653 c-88 -63 -182 -128 -210 -144 l-50 -29 52 7 c40 4 58 2
78 -11 l27 -18 48 54 c58 64 223 258 218 257 -2 0 -75 -52 -163 -116z"/>
<path d="M8585 9668 c-44 -36 -176 -154 -245 -221 -14 -13 -39 -31 -56 -40
-17 -9 -34 -23 -37 -32 -4 -8 -22 -23 -42 -32 -19 -9 -37 -25 -41 -35 -3 -10
-23 -27 -44 -38 -22 -11 -44 -29 -50 -41 -7 -11 -29 -38 -50 -59 -48 -48 -53
-75 -21 -120 14 -19 27 -37 28 -39 5 -7 72 61 78 80 3 9 19 22 35 29 16 7 32
22 36 33 4 12 22 37 40 57 62 65 119 127 179 194 33 37 74 82 90 100 17 18 38
44 48 57 10 13 38 50 64 82 25 32 44 59 42 61 -2 2 -26 -14 -54 -36z"/>
<path d="M6818 9583 c-32 -20 -62 -72 -78 -135 -14 -56 -1 -133 34 -188 l22
-35 -121 -115 c-67 -63 -120 -118 -118 -122 2 -5 13 -8 23 -8 16 0 14 -9 -20
-71 -22 -39 -63 -98 -92 -131 -51 -59 -52 -61 -24 -56 48 9 -90 -122 -152
-144 -72 -26 -155 -90 -196 -153 -62 -92 -95 -219 -78 -294 6 -30 1 -48 -37
-122 -38 -76 -45 -98 -49 -166 -3 -55 0 -89 10 -113 13 -31 13 -40 1 -75 -8
-22 -17 -80 -19 -130 -2 -49 -9 -105 -15 -124 -7 -19 -12 -69 -12 -111 0 -92
32 -174 80 -208 27 -19 112 -45 130 -40 5 1 35 -11 68 -27 55 -27 71 -30 182
-34 109 -3 185 5 235 24 33 13 32 -23 -1 -60 -17 -20 -40 -53 -50 -73 -11 -21
-27 -45 -37 -53 -9 -8 -22 -25 -28 -39 -6 -14 -68 -110 -137 -215 -69 -104
-129 -197 -134 -205 -20 -34 234 201 424 393 64 64 120 117 124 117 6 0 101
-73 131 -101 5 -4 -4 -23 -22 -43 -16 -19 -33 -47 -36 -63 -4 -15 -22 -45 -41
-67 -19 -21 -35 -44 -35 -51 0 -8 -18 -35 -40 -60 -22 -26 -50 -65 -62 -88
-11 -23 -33 -57 -48 -77 -36 -45 -192 -301 -187 -306 3 -4 287 286 365 374 26
29 73 79 105 112 31 32 57 64 57 69 0 5 19 24 42 42 l41 33 48 -52 48 -52 55
35 c96 61 156 95 156 87 0 -5 -15 -30 -32 -56 -18 -27 -49 -72 -68 -101 -19
-29 -45 -66 -58 -82 -45 -55 -278 -418 -262 -408 13 8 194 208 270 298 36 43
88 104 115 136 28 32 73 87 100 122 28 34 73 85 102 113 28 28 59 69 68 91 9
22 33 60 54 85 21 25 46 61 56 80 10 19 57 79 106 132 48 53 95 108 104 122
23 35 38 33 87 -13 23 -22 56 -48 73 -57 l32 -17 -45 -66 c-25 -36 -55 -77
-68 -91 -12 -14 -31 -44 -43 -67 -12 -24 -33 -50 -46 -59 -14 -9 -28 -28 -32
-41 -3 -14 -25 -47 -49 -74 -23 -26 -50 -64 -59 -83 -9 -19 -27 -42 -41 -51
-13 -8 -31 -30 -40 -48 -9 -17 -36 -57 -59 -87 -23 -30 -70 -94 -103 -142 -60
-86 -70 -114 -21 -62 13 14 65 62 116 106 81 71 164 158 335 353 57 64 142
154 224 238 28 29 59 64 69 80 11 18 26 27 43 27 32 0 108 44 122 70 6 11 32
31 58 44 114 58 204 204 228 370 3 27 15 72 26 100 37 96 49 141 53 201 2 33
13 87 25 119 24 72 27 207 5 279 -81 268 -363 445 -552 348 -54 -27 -110 -92
-119 -136 -5 -29 -13 -40 -39 -51 -31 -13 -78 -59 -88 -86 -3 -9 -12 -4 -27
15 -24 30 -116 87 -141 87 -9 0 -24 9 -33 19 -17 19 -17 21 19 53 21 18 46 36
56 40 11 4 27 24 37 45 9 21 24 42 32 47 8 5 32 26 52 47 20 22 43 37 50 35 7
-3 27 -7 43 -10 29 -6 28 -5 -7 14 -21 11 -38 25 -38 30 0 21 34 40 73 41 33
0 38 2 22 9 -11 5 -32 9 -47 9 -51 2 -32 29 35 51 59 19 60 20 17 14 -25 -3
-53 -8 -62 -10 -16 -5 -18 2 -18 51 0 60 -20 109 -67 165 -18 22 -28 46 -29
71 -1 21 -11 51 -23 68 -19 27 -20 31 -6 65 23 54 19 127 -8 167 -27 41 -53
46 -135 24 -59 -15 -64 -14 -146 9 -137 40 -285 58 -406 51 l-105 -7 -99 51
c-108 55 -152 63 -198 34z m189 -84 c89 -47 105 -52 178 -56 58 -3 76 -1 65 6
-11 8 7 11 67 11 45 0 85 -4 88 -10 3 -6 -4 -10 -17 -10 -22 0 -63 -19 -43
-20 6 0 -3 -12 -20 -25 l-30 -24 49 14 c27 8 74 14 105 14 l56 -1 -46 -8 c-50
-9 -86 -27 -94 -48 -4 -10 0 -12 12 -7 33 12 111 18 158 10 l48 -7 -32 -19
c-43 -26 -39 -40 7 -23 39 14 72 18 72 8 0 -3 -14 -17 -30 -31 -38 -31 -34
-38 11 -19 29 12 39 12 65 1 17 -7 39 -23 48 -36 15 -22 16 -22 16 -3 0 11 5
25 12 32 9 9 6 13 -12 20 -21 8 -21 9 -5 15 9 4 31 1 49 -8 l31 -15 -28 25
c-22 20 -38 25 -68 23 -29 -1 -45 4 -61 20 l-22 22 21 0 c61 0 159 -57 194
-114 20 -33 25 -81 9 -91 -5 -3 -10 3 -10 15 0 27 -46 74 -63 63 -9 -6 -8 -8
4 -11 36 -7 54 -100 21 -109 -14 -3 -17 -12 -14 -35 4 -28 3 -30 -19 -24 -13
4 -2 -6 26 -21 31 -18 57 -42 71 -67 14 -24 24 -34 29 -26 11 18 43 -17 56
-60 8 -27 8 -43 0 -58 -16 -30 -14 -34 10 -21 25 13 20 0 -15 -40 l-21 -24 25
6 25 6 -28 -25 c-15 -13 -36 -24 -45 -24 -15 -1 -15 -2 2 -15 18 -14 17 -15
-21 -15 -63 0 -95 48 -43 65 9 3 36 23 59 44 44 41 50 65 26 116 l-14 30 6
-28 c6 -33 -11 -57 -42 -57 -12 0 -48 9 -80 20 -32 11 -71 20 -86 20 -16 0
-32 7 -38 18 -8 14 -10 9 -11 -22 0 -35 6 -45 55 -90 30 -28 55 -54 55 -58 0
-13 -65 -28 -120 -28 -74 0 -153 24 -193 59 l-31 29 69 -14 c39 -7 81 -13 95
-13 24 1 23 1 -5 11 -45 16 -208 128 -186 128 6 0 53 -20 104 -45 50 -25 81
-37 67 -28 -14 10 -43 35 -65 57 -33 34 -37 41 -22 44 10 2 37 -8 60 -23 l42
-27 -48 49 c-47 48 -48 50 -25 56 40 11 56 8 87 -19 35 -30 42 -19 9 15 -18
21 -28 23 -73 18 -29 -3 -68 -13 -86 -23 l-34 -17 19 22 c11 11 15 21 9 21
-12 0 -83 -51 -101 -72 -11 -13 -20 -14 -66 -3 -69 16 -72 18 -96 65 -25 49
-25 82 -1 160 l19 61 -21 -15 c-12 -9 -38 -25 -58 -36 -23 -12 -44 -35 -57
-62 -19 -37 -22 -67 -4 -43 4 6 17 19 30 29 l22 19 -15 -36 c-17 -41 -20 -143
-5 -152 6 -4 10 6 10 24 0 56 12 67 27 24 29 -79 50 -161 63 -241 7 -45 14
-81 15 -80 2 2 8 41 15 88 6 47 18 106 26 133 14 41 19 47 43 47 l28 0 -22
-47 c-30 -63 -42 -145 -51 -329 -5 -124 -4 -160 10 -207 24 -81 50 -98 145
-96 42 0 87 -2 101 -5 16 -4 38 0 61 12 l37 19 -10 -29 c-6 -15 -13 -28 -17
-28 -4 0 -13 -15 -19 -34 -15 -39 -43 -68 -49 -49 -3 8 -15 5 -39 -9 -36 -21
-41 -19 -23 14 10 19 9 20 -12 14 -13 -5 -37 -10 -54 -13 -25 -4 -28 -3 -17 8
17 18 15 32 -4 25 -8 -3 -27 -3 -41 0 -19 5 -22 9 -11 16 10 7 10 11 1 14 -57
24 -93 101 -93 202 0 67 -35 243 -60 299 -10 24 -30 58 -45 77 -28 36 -65 132
-65 166 0 36 -17 12 -31 -42 l-13 -53 -13 45 c-16 52 -10 111 18 183 l20 50
-26 -17 -26 -17 15 29 c21 40 88 102 128 119 40 17 85 58 104 95 22 42 17 42
-27 5 -22 -20 -72 -52 -109 -71 -116 -61 -162 -141 -163 -281 -1 -94 22 -161
86 -257 l42 -63 5 38 5 37 29 -51 c27 -49 56 -137 55 -169 0 -8 -7 -3 -15 13
-19 35 -25 34 -14 -3 5 -16 7 -30 5 -30 -2 0 -32 38 -66 85 -34 47 -63 84 -65
82 -2 -2 1 -18 6 -37 l9 -33 -25 24 c-15 13 -40 48 -56 77 -16 28 -32 52 -35
52 -3 0 -3 -20 0 -45 4 -25 5 -45 2 -45 -10 0 -43 77 -56 130 -7 30 -15 47
-17 38 -6 -31 -22 -19 -22 17 0 50 20 134 41 178 11 20 15 37 10 37 -5 0 -12
-4 -16 -9 -3 -5 -24 -24 -46 -42 l-41 -33 17 35 c53 103 131 191 220 249 36
23 65 46 65 50 0 4 -15 11 -32 15 -31 7 -31 8 -8 12 66 9 130 25 126 32 -3 4
-28 8 -57 10 -65 3 -98 19 -134 68 -34 45 -44 53 -67 53 -45 0 -56 -119 -17
-187 13 -23 20 -45 17 -49 -22 -22 -88 99 -88 160 0 48 30 119 57 135 32 19
60 12 160 -40z m657 -100 c31 -12 55 -24 52 -26 -5 -5 -106 24 -126 37 -28 18
14 12 74 -11z m174 -27 c6 -9 12 -25 12 -36 0 -11 -3 -16 -8 -10 -4 5 -21 24
-37 43 -30 33 -30 33 -5 26 14 -4 31 -14 38 -23z m-293 8 c3 -6 -1 -7 -9 -4
-18 7 -21 14 -7 14 6 0 13 -4 16 -10z m351 -256 c-3 -8 -13 -14 -21 -14 -14 0
-14 4 2 31 13 22 19 26 21 14 2 -9 1 -23 -2 -31z m-1103 -6 c-39 -50 -93 -182
-107 -263 l-7 -40 30 35 30 35 -9 -40 c-14 -59 -12 -109 6 -162 22 -67 36 -78
29 -23 l-6 45 33 -60 c18 -33 43 -75 56 -92 24 -35 28 -48 10 -37 -7 4 -2 -9
10 -29 l21 -37 -38 20 c-21 10 -56 35 -76 55 -21 19 -39 35 -41 35 -1 0 -4
-10 -6 -22 -2 -19 -8 -14 -27 27 -13 28 -30 73 -36 100 l-13 50 -21 -45 -21
-45 -1 35 c-2 72 3 107 26 165 14 32 23 61 21 62 -2 2 -18 -9 -36 -24 l-33
-27 8 25 c14 44 45 98 77 135 31 36 32 37 8 29 -21 -6 -18 -1 15 27 22 18 53
45 70 60 30 26 47 30 28 6z m1097 -39 c0 -16 -40 -50 -51 -43 -6 4 -2 12 10
21 12 8 21 21 21 29 0 8 5 12 10 9 6 -3 10 -10 10 -16z m38 -44 c10 17 11 14
12 -22 0 -48 -12 -54 -46 -22 -21 19 -21 22 -6 38 15 14 18 15 23 2 5 -12 8
-12 17 4z m81 -143 c1 -20 -3 -31 -9 -27 -5 3 -10 27 -9 53 0 35 3 42 9 27 5
-11 9 -35 9 -53z m-216 -59 c18 -9 48 -20 67 -24 29 -6 31 -7 9 -8 -25 -1
-119 34 -119 44 0 8 10 5 43 -12z m-406 -9 c-3 -3 -12 -4 -19 -1 -8 3 -5 6 6
6 11 1 17 -2 13 -5z m50 -10 c-3 -3 -12 -4 -19 -1 -8 3 -5 6 6 6 11 1 17 -2
13 -5z m371 -42 c6 -18 -15 -14 -22 4 -4 10 -1 14 6 12 6 -2 14 -10 16 -16z
m-410 -26 c-10 -7 -31 -30 -48 -51 -39 -50 -39 -31 1 23 17 23 38 42 47 42 15
-1 15 -2 0 -14z m170 -91 c7 -7 -26 -87 -48 -115 l-20 -25 0 79 0 79 32 -7
c17 -3 34 -8 36 -11z m-1014 -27 c8 -39 5 -42 -33 -33 l-31 6 22 30 c28 37 34
36 42 -3z m1225 10 c-8 -15 -14 -18 -17 -10 -3 10 -7 10 -18 1 -8 -7 -17 -9
-21 -6 -3 4 -12 2 -20 -4 -9 -8 -13 -8 -13 -1 0 6 -7 9 -15 6 -8 -4 -15 -1
-15 6 0 9 -7 7 -20 -5 -24 -21 -31 -18 -20 10 7 17 18 20 90 23 l82 4 -13 -24z
m51 -13 c7 -8 9 -26 5 -43 -6 -30 -59 -101 -68 -92 -3 3 2 38 11 78 15 72 28
86 52 57z m-104 -112 c-21 -40 -66 -99 -66 -86 0 13 72 124 78 119 2 -2 -3
-17 -12 -33z m-1201 15 c28 -13 32 -23 10 -32 -31 -12 -14 -24 19 -14 96 30
175 -58 176 -195 0 -57 -19 -137 -33 -137 -2 0 0 23 5 51 6 35 6 55 -1 62 -8
8 -11 4 -11 -11 0 -13 -7 -37 -17 -55 -46 -89 -97 -127 -208 -152 -39 -9 -80
-23 -92 -31 -21 -13 -22 -12 -29 21 -3 19 -4 44 -1 55 9 37 -13 21 -35 -25
-12 -25 -25 -45 -29 -45 -14 0 -43 57 -60 115 l-18 60 0 -60 c0 -33 4 -81 8
-107 7 -44 7 -46 -11 -37 -30 16 -76 96 -88 153 -18 88 16 198 84 275 19 21
89 71 100 71 3 0 -2 -16 -10 -35 -25 -61 -15 -71 19 -15 50 84 147 122 222 88z
m496 -61 c9 -7 24 -36 33 -64 10 -29 26 -63 37 -75 22 -25 22 -25 4 42 -6 21
-3 19 18 -10 13 -19 30 -59 36 -87 21 -88 90 -164 174 -194 37 -13 82 -47 74
-55 -2 -3 -17 0 -32 6 -15 6 -60 13 -101 17 -66 5 -78 3 -126 -20 -61 -30
-177 -131 -208 -182 -12 -19 -25 -35 -30 -35 -4 0 -27 18 -51 40 l-44 40 40
-6 40 -6 -35 29 c-19 15 -50 42 -69 59 l-34 31 59 28 59 28 -52 9 -51 9 25 55
c34 74 41 158 19 225 -10 28 -15 53 -13 56 3 2 22 -18 43 -44 42 -52 94 -103
107 -103 4 0 -2 18 -13 40 -11 22 -17 40 -13 40 5 0 56 -24 115 -53 59 -29
102 -45 98 -37 -5 8 -32 38 -60 65 -55 53 -112 131 -129 178 l-11 28 38 -21
c20 -12 44 -27 53 -33z m296 -4 c-3 -10 -5 -2 -5 17 0 19 2 27 5 18 2 -10 2
-26 0 -35z m908 -36 l27 -22 -28 -43 c-38 -59 -64 -54 -79 15 -14 66 30 93 80
50z m-830 -61 c-6 -49 -11 -66 -23 -66 -16 0 -41 28 -42 46 0 13 61 96 67 90
3 -2 2 -34 -2 -70z m231 -10 c-6 -26 -43 -76 -56 -76 -4 0 -10 9 -13 21 -4 14
5 31 31 59 38 39 49 38 38 -4z m226 -45 c80 -51 128 -139 128 -235 0 -55 -3
-67 -20 -76 -26 -14 -40 -5 -40 24 0 44 -14 36 -36 -21 -23 -62 -25 -61 -43
28 -13 61 -45 128 -97 202 -33 46 -44 87 -24 87 6 0 33 -22 60 -50 56 -55 61
-51 25 20 -30 59 -20 64 47 21z m278 7 c12 -13 30 -41 42 -64 19 -39 19 -43 4
-72 -19 -38 -55 -49 -97 -32 -65 27 -88 147 -35 182 22 15 66 8 86 -14z m181
-8 l30 -30 -27 -37 c-16 -21 -29 -40 -31 -42 -2 -2 -12 4 -22 13 -29 26 -36
72 -17 101 21 32 31 31 67 -5z m-811 -1 c0 -4 9 -6 20 -4 12 2 20 -2 20 -9 0
-10 -11 -11 -47 -5 -27 4 -56 8 -66 8 -10 1 -16 5 -13 9 7 11 86 12 86 1z
m1036 -169 l-15 -45 5 70 c7 92 18 125 22 65 1 -25 -4 -65 -12 -90z m73 21
c-4 -28 -12 -58 -18 -68 -9 -16 -10 -16 -11 4 0 12 5 57 12 100 10 67 13 73
18 46 4 -17 4 -54 -1 -82z m-1212 93 c-3 -3 -12 -4 -19 -1 -8 3 -5 6 6 6 11 1
17 -2 13 -5z m332 -106 c34 -68 39 -119 17 -173 -14 -31 -6 -50 9 -25 26 42
35 -48 10 -107 -20 -48 -75 -114 -114 -136 l-31 -18 0 30 c0 16 -5 42 -12 58
-6 15 -13 50 -13 76 -2 60 -26 95 -88 126 -26 13 -47 29 -47 36 0 8 24 20 54
29 37 11 63 27 84 50 17 19 33 32 36 29 3 -3 15 15 28 41 12 25 25 46 29 46 4
0 21 -28 38 -62z m663 45 c24 -22 23 -34 -8 -81 -23 -36 -29 -39 -46 -29 -27
17 -33 54 -15 93 18 37 41 43 69 17z m258 -117 c-15 -39 -25 -25 -11 15 6 18
12 46 13 63 1 25 2 23 5 -10 2 -22 -1 -53 -7 -68z m-539 -16 c9 0 24 -17 34
-41 10 -22 31 -51 47 -64 31 -26 40 -73 18 -99 -12 -15 -17 -12 -55 31 -24 27
-59 57 -79 68 -22 12 -34 25 -31 33 3 8 5 34 5 58 0 45 0 45 22 30 12 -9 30
-16 39 -16z m354 0 c19 -37 19 -69 0 -76 -20 -8 -9 -24 16 -24 11 0 17 -4 14
-10 -10 -16 -51 -12 -75 8 -25 20 -30 75 -11 111 16 29 38 26 56 -9z m-2338
-77 c22 -21 55 -47 74 -58 29 -18 35 -27 43 -75 l8 -55 24 47 c61 120 202 174
279 107 35 -31 45 -26 25 12 -10 17 -9 18 15 7 65 -30 91 -172 46 -253 -12
-22 -19 -31 -16 -20 3 11 8 49 11 85 l4 65 -22 -59 c-13 -32 -39 -77 -58 -98
l-35 -39 -45 17 c-32 12 -76 17 -152 18 -118 0 -116 0 -119 71 l-1 30 -13 -30
c-8 -16 -14 -47 -15 -67 0 -27 -6 -40 -20 -48 -23 -12 -70 -78 -70 -99 0 -11
6 -9 23 7 33 31 106 61 169 68 65 8 171 -3 163 -17 -4 -5 -12 -9 -19 -9 -8 0
-38 -11 -67 -24 l-54 -25 70 6 c65 5 128 13 217 29 l37 7 -9 -34 c-14 -49 -12
-112 6 -181 8 -33 14 -61 12 -63 -7 -6 -204 -113 -218 -118 -30 -11 47 -6 110
7 l64 13 -29 -23 c-17 -14 -52 -31 -80 -40 -55 -18 -204 -30 -231 -20 -16 6
-16 8 2 20 10 7 55 32 99 56 123 66 197 121 183 135 -3 3 -34 -8 -69 -24 -126
-59 -277 -82 -346 -52 -42 17 -42 31 0 31 46 0 147 52 204 106 l48 44 -55 -21
c-109 -43 -174 -60 -203 -53 -34 7 -67 55 -68 99 l-1 30 -12 -35 -13 -35 -13
43 c-11 34 -11 55 -1 112 7 39 15 70 18 70 3 0 11 -7 17 -15 8 -12 11 6 11 72
0 49 3 104 7 123 7 32 6 31 -15 -12 -12 -26 -25 -48 -29 -48 -11 0 -10 98 1
136 8 29 57 114 65 114 2 0 21 -17 43 -37z m1910 -89 c26 -15 57 -45 73 -71
l29 -46 -48 -53 c-27 -29 -59 -75 -72 -101 -29 -60 -37 -149 -16 -188 l15 -29
7 53 c10 72 60 166 112 208 l42 35 16 -34 c10 -18 31 -47 47 -65 l30 -31 -21
-69 c-11 -38 -34 -88 -51 -111 -35 -49 -29 -52 21 -14 44 33 80 75 103 120 19
37 14 35 72 21 44 -11 44 -12 38 -48 -13 -71 -73 -197 -104 -216 -5 -3 -10
-11 -10 -16 0 -14 48 18 97 64 35 33 82 117 106 188 5 15 54 35 64 26 2 -3 -6
-34 -18 -71 -29 -88 -83 -163 -144 -203 -28 -17 -69 -48 -92 -68 -32 -28 -54
-39 -89 -43 -34 -3 -45 -2 -40 7 4 6 13 11 20 11 7 0 20 6 30 13 16 12 12 13
-31 13 -58 0 -95 21 -140 76 -28 34 -33 37 -33 18 0 -12 5 -31 11 -42 11 -20
10 -20 -20 2 -18 12 -46 46 -62 76 -34 59 -43 67 -33 29 8 -33 -8 -32 -73 5
-50 28 -82 63 -97 105 -5 15 1 12 26 -12 33 -32 88 -60 88 -44 0 4 -8 15 -18
24 -43 39 -84 168 -61 192 4 3 20 -7 36 -24 31 -30 89 -48 120 -37 14 6 7 16
-35 59 -53 54 -82 108 -82 153 0 45 22 104 51 135 35 37 77 38 136 3z m-499
-50 c-3 -27 -4 -25 -15 15 -10 39 -10 42 3 29 9 -9 14 -28 12 -44z m-353 -30
c-9 -9 -34 -41 -56 -71 -22 -29 -44 -53 -50 -53 -12 0 -7 9 43 77 35 48 68 77
77 68 2 -2 -4 -12 -14 -21z m68 -3 c-82 -130 -128 -192 -131 -176 -3 15 -7 14
-28 -6 -38 -36 -28 -11 21 50 40 50 145 160 153 161 2 0 -4 -13 -15 -29z m32
-101 c-25 -49 -49 -90 -53 -90 -4 0 -15 -12 -24 -27 -32 -52 -19 2 19 78 36
71 78 129 95 129 4 0 -12 -40 -37 -90z m272 -12 c-3 -8 -6 -5 -6 6 -1 11 2 17
5 13 3 -3 4 -12 1 -19z m164 -60 c-13 -34 -58 -86 -90 -102 l-26 -14 0 48 c0
47 1 49 35 60 20 7 47 20 60 30 28 21 35 14 21 -22z m-176 -88 c-9 -28 -29
-25 -21 3 3 12 6 29 6 37 1 12 3 11 11 -3 6 -9 7 -26 4 -37z m-35 -109 c0 -24
-53 -81 -75 -81 -12 0 -9 6 12 24 16 13 35 36 42 50 17 31 21 32 21 7z m119
-9 c-18 -47 -42 -80 -66 -91 -39 -18 -42 -13 -22 27 10 20 21 48 23 63 5 21
11 25 40 26 33 1 34 0 25 -25z m115 -87 l38 -46 -31 -47 c-17 -27 -42 -59 -56
-72 -14 -13 -25 -29 -25 -35 0 -10 -89 -158 -105 -173 -9 -9 5 77 21 128 7 25
18 69 24 99 6 34 20 65 39 86 16 19 35 50 42 69 7 20 13 36 14 36 0 0 18 -20
39 -45z m-367 -11 c-3 -3 -12 -4 -19 -1 -8 3 -5 6 6 6 11 1 17 -2 13 -5z
m-1322 -124 c17 -11 52 -23 79 -26 l49 -7 -24 -18 c-52 -40 -123 -33 -154 15
-9 13 -18 51 -21 83 l-5 58 23 -43 c13 -24 37 -52 53 -62z m1467 73 c43 -13
-33 -73 -91 -73 -37 0 -45 11 -30 43 12 26 63 49 89 40 8 -3 23 -8 32 -10z
m-174 -7 c8 -9 -14 -39 -35 -47 -32 -12 -61 -11 -125 3 l-53 12 53 8 c29 4 65
15 80 23 22 12 68 12 80 1z m-104 -105 l71 -6 -1 -64 c-1 -75 -15 -91 -76 -91
-52 0 -103 23 -124 55 -18 28 -32 95 -26 131 l3 21 41 -20 c24 -12 72 -23 112
-26z m-523 23 c8 -10 9 -18 3 -22 -6 -4 -32 -22 -59 -41 -60 -43 -134 -71
-183 -71 -36 0 -35 2 47 46 46 24 102 58 125 74 46 35 49 35 67 14z m780 -97
c-30 -50 -55 -68 -98 -74 l-39 -5 9 71 c10 71 10 71 41 72 17 0 47 6 66 12 34
12 35 12 38 -16 2 -15 -6 -42 -17 -60z m-475 -61 l13 -36 -24 16 c-22 14 -58
57 -80 94 -5 8 9 4 35 -12 31 -18 48 -36 56 -62z m-708 17 c-10 -2 -28 -2 -40
0 -13 2 -5 4 17 4 22 1 32 -1 23 -4z m636 -74 c37 -38 95 -154 83 -165 -3 -3
-29 31 -162 210 l-30 40 34 -20 c18 -10 52 -39 75 -65z m191 -4 c22 -8 61 -14
86 -15 58 0 63 -10 49 -95 -14 -90 -17 -95 -55 -95 -37 0 -79 29 -100 71 -14
26 -33 149 -24 149 2 0 22 -7 44 -15z m322 -30 c-9 -62 -47 -118 -98 -143 -24
-12 -44 -20 -46 -18 -2 2 1 23 6 47 6 24 11 63 11 87 0 39 2 42 28 42 15 1 41
7 57 15 45 20 48 19 42 -30z"/>
<path d="M7014 9411 c30 -31 50 -39 60 -23 3 5 -16 19 -42 31 l-47 23 29 -31z"/>
<path d="M7269 9282 c-38 -34 -42 -77 -11 -102 19 -16 20 -18 4 -35 -16 -17
-16 -17 5 -12 20 4 24 -1 33 -34 11 -40 35 -62 80 -73 24 -7 24 -6 -2 9 -34
19 -48 44 -48 87 l0 33 20 -43 c22 -49 55 -66 118 -59 46 5 54 1 20 -12 -15
-5 -4 -8 38 -7 40 0 74 -7 107 -21 26 -12 47 -20 47 -18 0 2 -17 16 -37 30
l-38 25 33 0 c17 0 55 -9 84 -20 52 -19 53 -19 30 0 -22 18 -58 31 -124 45
-20 4 -25 9 -21 25 4 15 9 17 23 10 31 -17 34 -11 7 10 -14 11 -28 30 -30 43
-4 20 -4 20 -6 -4 -2 -41 -24 -63 -54 -55 -55 14 -108 142 -76 183 10 14 8 13
-10 -2 -13 -11 -29 -32 -37 -47 -13 -24 -20 -28 -60 -28 -28 0 -43 -4 -39 -10
3 -5 27 -10 53 -10 37 -1 50 -5 64 -24 l16 -23 -51 14 c-122 31 -149 51 -128
92 12 22 32 31 74 32 l32 1 -30 13 c-42 20 -51 19 -86 -13z m151 -167 c0 -26
26 -46 49 -37 10 3 10 6 1 12 -7 4 -1 8 16 8 l28 0 -23 -19 c-30 -24 -46 -24
-82 2 -34 24 -39 59 -9 59 15 0 20 -7 20 -25z"/>
<path d="M7260 9058 c-1 -22 -1 -22 -15 -4 -8 11 -18 17 -21 13 -11 -10 17
-77 36 -87 26 -14 79 -12 115 5 l30 13 -38 1 c-40 1 -87 36 -87 66 0 8 -4 15
-10 15 -5 0 -10 -10 -10 -22z"/>
<path d="M8735 9364 c-77 -73 -165 -158 -195 -187 -30 -30 -65 -59 -77 -65
-11 -7 -31 -27 -42 -46 -12 -18 -35 -39 -52 -46 -16 -7 -37 -26 -45 -41 -8
-16 -30 -36 -50 -44 -23 -9 -38 -24 -45 -43 -6 -16 -28 -44 -50 -61 -21 -18
-39 -36 -39 -41 0 -5 17 -14 38 -20 59 -19 57 -27 -5 -22 -51 3 -61 1 -81 -21
l-23 -24 42 -27 c47 -32 47 -40 -2 -26 -60 17 -77 13 -94 -24 -9 -19 -34 -46
-55 -60 -22 -14 -47 -41 -56 -58 -9 -18 -28 -45 -42 -60 -29 -32 -31 -29 26
-57 l43 -22 49 41 c27 23 52 50 55 60 3 10 22 29 41 40 19 12 41 35 49 50 8
16 28 37 44 46 16 9 38 34 50 54 11 21 28 44 37 51 9 8 27 30 40 51 13 20 37
44 53 54 17 10 36 31 42 47 7 16 23 35 36 44 12 8 32 32 44 52 11 20 35 45 52
56 18 11 40 36 49 55 10 19 26 42 36 50 10 8 35 40 55 72 20 31 41 58 45 60
12 4 176 238 171 242 -2 3 -67 -56 -144 -130z"/>
<path d="M5876 8679 c-277 -480 -455 -797 -451 -807 12 -32 448 -782 452 -778
3 2 -5 65 -16 139 -19 122 -19 140 -7 184 27 90 36 182 32 305 -2 68 0 143 5
168 5 25 11 67 15 95 5 39 13 56 39 81 24 22 31 35 24 45 -13 22 -10 149 5
199 25 82 50 123 121 194 66 67 136 111 248 155 22 9 27 17 27 47 0 29 8 44
40 75 22 21 56 63 76 93 30 46 35 61 30 89 -5 25 -2 38 9 47 8 7 15 17 15 23
0 5 17 27 38 48 160 160 156 151 127 259 -8 30 -15 72 -15 93 l0 37 -179 0
-178 0 -457 -791z m574 410 c0 -6 -13 -24 -29 -40 -32 -31 -51 -37 -51 -16 0
20 40 55 78 66 1 1 2 -4 2 -10z m-10 -140 c0 -12 -14 -48 -32 -80 -51 -97
-268 -283 -296 -255 -3 3 2 14 10 23 8 10 29 47 47 83 17 35 35 67 39 70 4 3
15 17 25 32 9 15 35 37 56 48 22 11 41 24 43 28 3 11 89 71 101 72 4 0 7 -9 7
-21z"/>
<path d="M6405 9060 c-10 -11 -13 -20 -8 -20 13 0 38 29 31 35 -3 3 -13 -4
-23 -15z"/>
<path d="M6336 8873 c-45 -40 -156 -181 -156 -200 0 -3 27 19 61 48 50 43 171
199 155 199 -2 0 -29 -21 -60 -47z"/>
<path d="M7975 9458 c-17 -57 -24 -233 -10 -247 11 -11 81 30 98 57 12 18 91
93 118 113 l23 16 -23 36 -23 37 -89 0 c-63 0 -91 -4 -94 -12z"/>
<path d="M8268 9181 c-19 -23 -40 -41 -46 -41 -6 0 -19 -11 -28 -25 -9 -14
-22 -25 -29 -25 -7 0 -31 -17 -54 -37 -38 -36 -41 -42 -47 -107 l-7 -68 44 7
c66 10 79 15 79 30 0 8 17 24 38 35 75 42 162 113 162 132 -1 7 -18 41 -39 76
l-39 63 -34 -40z"/>
<path d="M8909 9172 c-2 -6 -47 -56 -99 -112 -151 -161 -226 -242 -267 -288
-21 -24 -63 -68 -93 -97 -37 -37 -49 -55 -40 -58 8 -2 31 -10 50 -17 63 -22
71 -19 106 41 18 31 44 63 57 72 14 9 28 28 31 43 4 16 21 43 37 61 16 19 29
39 29 45 0 7 8 21 19 32 28 32 183 277 178 283 -3 2 -7 0 -8 -5z"/>
<path d="M8464 8875 c-25 -38 -86 -105 -157 -174 -31 -31 -57 -59 -57 -63 0
-5 15 -8 33 -8 38 0 68 23 177 135 70 72 71 74 37 119 -13 18 -15 18 -33 -9z"/>
<path d="M8585 8650 c-23 -44 -19 -76 11 -97 14 -10 36 -29 47 -43 12 -13 36
-38 53 -55 48 -46 100 -158 118 -254 18 -92 21 -262 6 -290 -5 -10 -21 -72
-35 -137 -15 -65 -30 -128 -35 -139 -5 -11 -12 -36 -15 -55 -11 -59 -76 -243
-95 -270 -9 -14 -33 -56 -53 -95 -24 -48 -52 -84 -87 -114 -68 -58 -147 -101
-186 -101 -24 0 -38 -8 -58 -34 -14 -19 -26 -37 -26 -40 0 -8 -27 -35 -118
-118 -74 -67 -200 -207 -243 -270 -12 -18 -48 -60 -79 -93 -31 -33 -68 -79
-83 -102 l-27 -43 242 0 243 1 340 587 339 587 4 111 4 112 29 6 29 6 0 104 0
104 -30 7 -30 7 0 118 0 119 29 3 29 3 -110 191 c-95 164 -114 191 -131 186
-17 -4 -19 -1 -14 24 5 29 -27 104 -45 104 -4 0 -14 -13 -23 -30z"/>
<path d="M8690 8601 c-12 -17 -17 -31 -11 -31 13 0 46 48 38 56 -2 3 -15 -9
-27 -25z"/>
<path d="M2330 8076 c0 -62 1 -64 30 -75 l30 -10 0 -150 0 -149 -30 -7 c-30
-6 -30 -8 -30 -71 l0 -64 135 0 135 0 0 64 c0 56 -3 66 -20 71 -17 5 -20 15
-20 61 l0 54 75 0 75 0 0 -50 c0 -39 -4 -53 -20 -62 -17 -11 -20 -24 -20 -75
l0 -63 135 0 135 0 0 64 c0 63 0 65 -30 71 l-30 7 0 153 0 153 30 6 c30 5 30
6 30 71 l0 65 -135 0 -135 0 0 -65 c0 -54 3 -66 20 -75 15 -8 20 -21 20 -55
l0 -45 -75 0 -75 0 0 49 c0 40 3 50 20 54 17 4 20 14 20 71 l0 66 -135 0 -135
0 0 -64z"/>
<path d="M3083 8087 l-63 -52 0 -190 0 -190 64 -52 65 -53 116 0 117 0 64 51
64 51 0 193 0 193 -62 51 -63 51 -120 -1 -120 0 -62 -52z m255 -236 c2 -90 -1
-138 -9 -147 -14 -17 -110 -19 -127 -2 -13 13 -18 269 -5 282 4 4 37 6 73 4
l65 -3 3 -134z"/>
<path d="M3250 7840 c0 -73 3 -90 15 -90 12 0 15 17 15 90 0 73 -3 90 -15 90
-12 0 -15 -17 -15 -90z"/>
<path d="M3570 8075 c0 -65 0 -66 30 -71 l30 -6 0 -178 0 -177 58 -46 57 -47
129 0 128 0 59 48 59 47 0 176 0 177 30 6 c30 5 30 6 30 71 l0 65 -135 0 -135
0 0 -65 c0 -54 3 -66 20 -75 19 -10 20 -21 20 -148 0 -94 -4 -142 -12 -150
-15 -15 -92 -16 -119 -2 -17 10 -19 23 -19 150 0 129 1 140 20 150 17 9 20 21
20 75 l0 65 -135 0 -135 0 0 -65z"/>
<path d="M4288 8092 l-57 -47 0 -81 -1 -82 47 -38 c41 -34 59 -41 151 -59 112
-21 138 -38 116 -72 -8 -14 -27 -19 -77 -21 l-65 -3 -7 31 -7 30 -79 0 -79 0
0 -49 c0 -47 2 -51 59 -100 l59 -51 125 0 125 0 61 51 61 51 0 83 0 83 -50 37
c-42 31 -64 39 -151 53 -104 18 -129 32 -116 66 5 12 20 16 72 16 64 0 66 -1
76 -30 11 -30 12 -30 85 -30 l74 0 0 59 0 58 -59 47 -59 46 -124 0 -123 -1
-57 -47z"/>
<path d="M4800 8076 c0 -62 1 -64 30 -75 l30 -10 0 -150 0 -149 -30 -7 c-30
-6 -30 -8 -30 -71 l0 -64 255 0 255 0 0 100 0 100 -59 0 c-57 0 -59 -1 -70
-30 -10 -30 -11 -30 -80 -30 l-71 0 0 55 0 55 70 0 70 0 0 50 0 50 -70 0 -70
0 0 45 0 45 74 0 74 0 7 -30 c6 -29 8 -30 66 -30 l59 0 0 105 0 105 -255 0
-255 0 0 -64z"/>
<path d="M8907 8103 c-4 -3 -7 -32 -7 -64 0 -57 1 -59 33 -67 l32 -8 3 -150 2
-150 -32 -9 c-32 -10 -33 -11 -36 -72 l-3 -63 161 0 160 0 0 65 0 65 -40 6
-40 7 0 53 0 54 70 0 70 0 0 50 0 50 -70 0 -70 0 0 45 0 45 71 0 c69 0 70 0
80 -30 11 -29 13 -30 70 -30 l59 0 0 105 0 105 -253 0 c-140 0 -257 -3 -260
-7z"/>
<path d="M9500 8046 c0 -62 1 -64 30 -75 l30 -10 0 -150 0 -149 -30 -7 c-30
-6 -30 -8 -30 -71 l0 -64 150 0 150 0 0 64 c0 63 0 65 -30 71 l-30 7 0 149 0
150 30 10 c29 11 30 13 30 75 l0 64 -150 0 -150 0 0 -64z"/>
<path d="M9963 8057 l-62 -52 0 -187 -1 -187 66 -55 65 -56 78 0 c63 0 83 4
104 20 14 11 27 20 30 20 3 0 7 -9 10 -20 4 -17 14 -20 71 -20 l66 0 0 175 0
175 -125 0 -125 0 0 -50 0 -50 40 0 40 0 0 -41 c0 -50 -19 -68 -73 -69 -75 0
-77 4 -77 154 0 153 -4 146 90 146 56 0 58 -1 69 -30 10 -30 11 -30 85 -30
l76 0 0 58 0 57 -59 48 -59 47 -123 -1 -124 0 -62 -52z"/>
<path d="M10467 8103 c-4 -3 -7 -32 -7 -64 0 -57 1 -59 33 -67 l32 -8 3 -150
2 -150 -32 -9 c-32 -10 -33 -11 -36 -72 l-3 -63 141 0 140 0 0 64 c0 56 -3 66
-20 71 -17 5 -20 15 -20 61 l0 54 70 0 70 0 0 -54 c0 -39 -4 -55 -15 -60 -11
-4 -15 -22 -15 -71 l0 -65 135 0 135 0 0 65 c0 65 0 66 -30 72 l-30 6 0 149 0
149 30 10 c29 11 30 13 30 75 l0 64 -135 0 -135 0 0 -65 c0 -49 4 -67 15 -71
11 -4 15 -21 15 -55 l0 -49 -70 0 -70 0 0 45 c0 34 5 47 20 55 17 9 20 21 20
75 l0 65 -133 0 c-74 0 -137 -3 -140 -7z"/>
<path d="M11137 8103 c-4 -3 -7 -57 -7 -120 l0 -113 65 0 64 0 7 50 c6 49 7
50 40 50 l34 0 0 -154 0 -154 -35 -6 -35 -7 0 -64 0 -65 160 0 160 0 0 63 0
63 -37 10 -38 9 -3 153 -3 152 35 0 c35 0 35 -1 42 -50 l7 -50 63 0 64 0 0
120 0 120 -288 0 c-159 0 -292 -3 -295 -7z"/>
<path d="M11770 8046 c0 -62 1 -64 30 -75 l30 -10 0 -150 0 -149 -30 -7 c-30
-6 -30 -8 -30 -71 l0 -64 260 0 260 0 0 100 0 100 -63 0 c-60 0 -63 -1 -74
-30 -11 -29 -13 -30 -77 -30 l-66 0 0 55 0 55 70 0 70 0 0 50 0 50 -70 0 -70
0 0 45 0 45 69 0 c68 0 69 -1 80 -30 10 -29 12 -30 70 -30 l61 0 0 105 0 105
-260 0 -260 0 0 -64z"/>
<path d="M12360 8045 c0 -64 0 -64 33 -73 l32 -8 0 -149 0 -149 -32 -10 c-33
-9 -33 -9 -33 -72 l0 -64 150 0 150 0 0 65 c0 65 0 66 -30 72 -28 5 -30 9 -30
49 0 39 3 44 23 44 18 0 35 -22 87 -113 l66 -112 82 -3 83 -3 -3 68 c-3 60 -5
68 -23 71 -13 2 -34 24 -53 55 l-32 52 40 35 40 35 0 91 0 91 -57 46 -58 47
-217 0 -218 0 0 -65z m375 -130 l0 -40 -67 -3 -68 -3 0 46 0 46 68 -3 67 -3 0
-40z"/>
<path d="M13041 8060 l-61 -51 0 -78 0 -79 54 -41 c47 -36 65 -44 142 -57 120
-20 124 -22 124 -48 0 -36 -22 -47 -86 -44 -53 3 -59 5 -64 28 -6 24 -10 25
-88 28 l-82 3 0 -49 c0 -49 1 -51 62 -101 l63 -51 125 0 125 0 63 51 62 51 0
82 0 82 -50 37 c-43 32 -66 41 -151 56 -107 20 -123 28 -117 57 3 16 14 19 70
22 l66 3 7 -31 7 -30 79 0 79 0 -1 58 0 57 -59 48 -58 47 -126 0 -125 0 -60
-50z"/>
<path d="M3864 7947 c-10 -28 1 -190 14 -195 9 -3 12 22 12 102 0 66 -4 106
-10 106 -6 0 -13 -6 -16 -13z"/>
<path d="M2940 7846 c0 -59 4 -108 10 -111 6 -4 10 33 10 104 0 67 -4 111 -10
111 -6 0 -10 -41 -10 -104z"/>
<path d="M4770 7910 c0 -25 -5 -40 -12 -40 -7 0 -5 -5 5 -11 13 -8 17 -23 17
-64 0 -30 5 -55 10 -55 6 0 10 42 10 105 0 87 -3 105 -15 105 -11 0 -15 -11
-15 -40z"/>
<path d="M9812 7922 c-9 -6 -12 -36 -10 -113 3 -90 5 -104 21 -107 15 -3 17 7
17 112 0 64 -3 116 -7 116 -5 0 -14 -4 -21 -8z"/>
<path d="M10450 7815 c0 -63 4 -105 10 -105 6 0 10 42 10 105 0 63 -4 105 -10
105 -6 0 -10 -42 -10 -105z"/>
<path d="M12348 7883 l-3 -38 -67 -3 c-68 -3 -68 -3 -68 -32 l0 -30 70 0 70 0
0 -35 c0 -19 5 -35 10 -35 6 0 10 42 10 105 0 59 -4 105 -9 105 -6 0 -11 -17
-13 -37z"/>
<path d="M5230 7840 c0 -29 1 -30 50 -30 56 0 55 -1 38 35 -9 20 -18 25 -50
25 -36 0 -38 -2 -38 -30z"/>
<path d="M4180 7825 c0 -8 7 -15 15 -15 8 0 15 4 15 9 0 5 -7 11 -15 15 -9 3
-15 0 -15 -9z"/>
<path d="M12945 7790 c-3 -5 1 -10 10 -10 9 0 13 5 10 10 -3 6 -8 10 -10 10
-2 0 -7 -4 -10 -10z"/>
<path d="M12910 7751 c0 -6 5 -13 10 -16 6 -3 10 1 10 9 0 9 -4 16 -10 16 -5
0 -10 -4 -10 -9z"/>
<path d="M2628 7733 c7 -3 16 -2 19 1 4 3 -2 6 -13 5 -11 0 -14 -3 -6 -6z"/>
<path d="M10768 7703 c7 -3 16 -2 19 1 4 3 -2 6 -13 5 -11 0 -14 -3 -6 -6z"/>
<path d="M7874 7102 c-18 -21 -42 -55 -54 -77 -12 -22 -36 -56 -54 -76 -118
-137 -156 -188 -212 -287 -26 -46 -59 -86 -88 -109 -25 -20 -56 -52 -68 -72
-12 -20 -40 -55 -62 -77 -23 -23 -49 -56 -59 -73 l-18 -31 90 0 90 0 39 53
c21 28 61 87 87 130 27 43 61 88 76 99 16 12 40 46 54 77 15 31 34 65 44 76 9
11 26 37 37 58 10 21 43 66 72 100 65 75 142 174 149 192 3 9 -11 21 -38 34
-24 12 -45 21 -48 20 -3 0 -20 -17 -37 -37z"/>
<path d="M5933 6988 c13 -24 84 -146 157 -273 73 -126 135 -232 137 -235 3 -3
10 3 17 14 6 10 26 36 44 58 17 22 32 46 32 53 0 7 23 41 50 75 28 34 50 67
50 72 0 6 20 37 45 70 25 33 45 64 45 69 0 5 16 27 36 48 l35 40 -33 -11 c-18
-6 -50 -18 -70 -26 -52 -21 -173 -10 -313 28 -60 17 -125 30 -143 30 -18 0
-49 7 -69 15 -19 8 -38 15 -40 15 -3 0 6 -19 20 -42z"/>
<path d="M6735 6812 c-6 -4 -27 -29 -48 -57 -20 -27 -64 -72 -97 -100 -33 -27
-85 -74 -115 -102 -30 -29 -59 -53 -63 -53 -5 0 -37 -26 -70 -58 l-61 -57 25
-43 25 -42 102 0 102 1 40 65 c22 36 53 80 69 97 16 18 35 46 42 64 8 17 18
34 24 38 14 9 80 113 80 126 0 6 10 25 22 41 l21 31 -31 28 c-33 30 -49 34
-67 21z"/>
<path d="M6953 6502 c-40 -42 -88 -96 -106 -119 -19 -23 -43 -50 -53 -60 -17
-17 -13 -18 116 -21 150 -3 150 -3 190 75 26 52 55 92 98 137 29 31 32 31 -55
-2 l-42 -16 -38 41 -38 42 -72 -77z"/>
</g>
</svg>
